<?xml version="1.0" standalone="no"?>
<!DOCTYPE svg PUBLIC "-//W3C//DTD SVG 20010904//EN"
 "http://www.w3.org/TR/2001/REC-SVG-20010904/DTD/svg10.dtd">
<svg version="1.0" xmlns="http://www.w3.org/2000/svg"
 width="512.000000pt" height="512.000000pt" viewBox="0 0 512.000000 512.000000"
 preserveAspectRatio="xMidYMid meet">
<metadata>
Created by potrace 1.14, written by Peter Selinger 2001-2017
</metadata>
<g transform="translate(0.000000,512.000000) scale(0.100000,-0.100000)"
fill="#000000" stroke="none">
<path d="M2522 3228 c-31 -29 -90 -85 -132 -124 -41 -39 -126 -118 -188 -175
-105 -96 -111 -104 -89 -110 24 -6 122 -10 347 -13 l115 -1 1 25 c7 108 13
450 8 450 -3 0 -31 -24 -62 -52z"/>
<path d="M1150 3248 c-1 -17 1 -235 6 -543 1 -137 3 -402 4 -587 l0 -338 205
0 c113 0 205 3 206 8 0 4 2 97 4 207 2 171 11 314 18 322 3 3 116 -97 247
-217 186 -171 253 -230 262 -230 5 0 38 29 75 64 38 35 84 79 104 97 19 19 93
88 163 154 71 66 131 121 135 122 5 3 8 -127 10 -450 l1 -89 478 5 c262 2 486
6 497 10 11 3 34 8 50 12 96 21 204 84 285 165 148 148 205 297 204 540 0 221
-63 403 -182 528 -107 112 -229 171 -409 197 -23 3 -57 8 -75 11 -18 3 -114 7
-213 9 l-180 4 -152 -147 c-83 -81 -185 -180 -227 -220 -42 -39 -72 -72 -68
-73 4 -1 158 -2 342 -4 411 -3 481 -9 555 -49 77 -41 117 -88 147 -173 25 -72
27 -192 4 -248 -29 -68 -105 -135 -178 -156 -35 -10 -376 -15 -385 -5 -3 3 -4
85 -3 183 2 161 2 303 1 391 -1 38 -12 40 -43 10 -13 -13 -119 -116 -236 -230
-117 -113 -214 -203 -216 -200 -2 4 -5 108 -5 232 -1 123 -4 226 -6 228 -4 4
-33 -20 -113 -93 -30 -27 -64 -58 -76 -68 -11 -10 -57 -51 -101 -91 -44 -40
-104 -94 -134 -120 l-54 -46 -34 26 c-18 14 -44 35 -56 47 -13 12 -65 61 -117
109 -133 121 -527 498 -681 651 -33 32 -59 53 -59 45z"/>
</g>
</svg>
